# Blender v3.2.0 OBJ File: 'airport.blend'
# www.blender.org
mtllib airport large.mtl
o tarmac.001_Cube.001
v -25.000004 -8.147661 -141.158844
v -25.000004 -8.147661 -84.695305
v -25.000004 -8.147661 -28.231766
v -25.000004 -8.147661 28.231770
v -25.000004 -8.147661 84.695312
v -25.000004 -8.147661 141.158844
v 25.000004 -8.147661 141.158844
v 25.000004 -8.147661 84.695305
v 25.000004 -8.147661 28.231766
v 25.000004 -8.147661 -28.231770
v 25.000004 -8.147661 -84.695312
v 25.000004 -8.147661 -141.158844
v -25.000004 -21.342268 -141.158844
v -25.000004 -21.342268 -84.695305
v -25.000004 -21.342268 -28.231766
v -25.000004 -21.342268 28.231770
v -25.000004 -21.342268 84.695312
v -25.000004 -21.342268 141.158844
v 25.000004 -21.342268 141.158844
v 25.000004 -21.342268 84.695305
v 25.000004 -21.342268 28.231766
v 25.000004 -21.342268 -28.231770
v 25.000004 -21.342268 -84.695312
v 25.000004 -21.342268 -141.158844
v -87.750748 -8.147661 -141.158844
v -87.750748 -21.342268 -141.158844
v -87.750748 -8.147661 141.158844
v -87.750748 -21.342268 141.158844
v -87.750748 -21.342268 111.158844
v -87.750748 -21.342268 54.695312
v -87.750748 -21.342268 -54.695305
v -87.750748 -21.342268 -111.158844
v -87.750748 -8.147661 111.158844
v -87.750748 -8.147661 54.695312
v -87.750748 -8.147661 -54.695305
v -87.750748 -8.147661 -111.158844
v -24.246849 -8.147661 -197.622375
v -25.000004 -8.147661 -196.869217
v -24.779409 -8.147661 -197.401764
v 25.000004 -8.147661 -196.869217
v 24.246849 -8.147661 -197.622375
v 24.779409 -8.147661 -197.401764
v -25.000004 -21.342268 -196.869217
v -24.246849 -21.342268 -197.622375
v -24.779409 -21.342268 -197.401764
v 24.246849 -21.342268 -197.622375
v 25.000004 -21.342268 -196.869217
v 24.779409 -21.342268 -197.401764
v -25.000004 -8.147661 194.976089
v -22.353725 -8.147661 197.622375
v -24.224926 -8.147661 196.847275
v 22.353725 -8.147661 197.622375
v 25.000004 -8.147661 194.976089
v 24.224926 -8.147661 196.847275
v -22.353725 -21.342268 197.622375
v -25.000004 -21.342268 194.976089
v -24.224926 -21.342268 196.847275
v 25.000004 -21.342268 194.976089
v 22.353725 -21.342268 197.622375
v 24.224926 -21.342268 196.847275
v -193.711456 -21.342268 141.158844
v -193.711456 -21.342268 111.158844
v -193.711456 -8.147661 141.158844
v -193.711456 -21.342268 54.695312
v -193.711456 -21.342268 -54.695305
v -193.711456 -8.147661 111.158844
v -193.711456 -8.147661 54.695312
v -193.711456 -21.342268 -111.158844
v -193.711456 -8.147661 -111.158844
v -193.711456 -8.147661 -54.695305
v -193.711456 -8.147661 -141.158844
v -193.711456 -21.342268 -141.158844
vt 0.944566 -3.635065
vt 0.073599 -3.635065
vt 0.073599 -3.635065
vt 0.944566 -3.635065
vt 0.996119 -2.535072
vt 0.996119 -3.583511
vt 0.996119 -3.583511
vt 0.996119 -2.535072
vt 0.022046 2.964895
vt 0.022046 4.050215
vt 0.022046 4.050215
vt 0.022046 2.964895
vt 0.022046 -2.535072
vt 0.991086 -3.630031
vt 0.027079 -3.630032
vt 0.022046 -3.583511
vt 0.996119 4.050215
vt 0.996119 2.964895
vt 0.996119 2.964895
vt 0.996119 4.050215
vt 0.022046 -2.535072
vt 0.022046 -3.583511
vt 0.027079 -3.630032
vt 0.991086 -3.630032
vt 0.022046 -1.435078
vt 0.022046 -2.535072
vt 0.022046 -1.435078
vt 0.022046 -1.435078
vt 0.022046 -0.335085
vt 0.022046 -0.335085
vt 0.022046 0.764908
vt 0.022046 0.764908
vt 0.022046 1.864902
vt 0.022046 1.864901
vt 0.022046 2.964895
vt 0.022046 2.964895
vt 0.023478 4.063456
vt 0.036718 4.064888
vt 0.981447 4.064888
vt 0.994687 4.063456
vt 0.996119 1.864902
vt 0.996119 1.864902
vt 0.996119 0.764908
vt 0.996119 0.764908
vt 0.996119 -0.335085
vt 0.996119 -0.335085
vt 0.996119 -1.435078
vt 0.996119 -1.435078
vt 0.036718 4.064888
vt 0.981447 4.064888
vt 0.022046 1.864902
vt 0.022046 1.864901
vt 0.022046 -1.435078
vt 0.000000 0.000000
vt 0.000000 0.000000
vt 0.000000 0.000000
vt 0.000000 0.000000
vt 0.994687 4.063456
vt 0.023478 4.063456
vt 0.022046 -2.535072
vt 0.000000 0.000000
vt 0.000000 0.000000
vt 0.000000 0.000000
vt 0.000000 0.000000
vt 0.022046 -2.535072
vt 0.022046 -1.435078
vt 0.022046 1.864902
vt 0.022046 2.964895
vt 0.022046 2.964895
vt 0.022046 1.864901
vt 0.022046 -2.535072
vt 0.022046 -1.435078
vt 0.022046 -2.535072
vt 0.022046 -2.535072
vt 0.022046 2.964895
vt 0.022046 2.964895
vt 0.000000 0.000000
vt 0.000000 0.000000
vt 0.000000 0.000000
vt 0.000000 0.000000
vt 0.000000 0.000000
vt 0.000000 0.000000
vt 0.000000 0.000000
vt 0.000000 0.000000
vt 0.000000 0.000000
vt 0.000000 0.000000
vt 0.000000 0.000000
vt 0.967519 1.207298
vt -1.325410 1.207298
vt -1.325410 -0.207298
vt 0.967519 -0.207298
vt 2.325410 -1.325410
vt 2.325410 -0.595246
vt 0.967519 -0.937462
vt 2.325410 1.595246
vt 2.325410 2.325410
vt 0.967519 1.937462
vt -1.325410 -0.937462
vt 0.967519 2.325410
vt -1.325410 2.325410
vt -1.325410 1.937462
vt -1.325410 -1.325410
vt 0.967519 -1.325410
vn 0.0000 0.0000 1.0000
vn 1.0000 0.0000 0.0000
vn -1.0000 0.0000 0.0000
vn 0.0000 -1.0000 0.0000
vn 0.0000 1.0000 0.0000
vn -0.4313 0.0000 -0.9022
vn 0.0000 0.0000 -1.0000
vn 0.4313 0.0000 0.9022
vn 0.4313 0.0000 -0.9022
vn 0.9239 0.0000 -0.3827
vn 0.3827 0.0000 -0.9239
vn -0.9239 0.0000 -0.3827
vn -0.3827 0.0000 -0.9239
vn -0.9239 0.0000 0.3827
vn -0.3827 0.0000 0.9239
vn 0.9239 0.0000 0.3827
vn 0.3827 0.0000 0.9239
vn -0.4313 0.0000 0.9022
usemtl tarmac
s off
f 52/1/1 50/2/1 55/3/1 59/4/1
f 7/5/2 53/6/2 58/7/2 19/8/2
f 1/9/3 38/10/3 43/11/3 13/12/3
f 18/13/4 19/8/4 58/7/4 60/14/4 59/4/4 55/3/4 57/15/4 56/16/4
f 40/17/2 12/18/2 24/19/2 47/20/2
f 6/21/5 49/22/5 51/23/5 50/2/5 52/1/5 54/24/5 53/6/5 7/5/5
f 17/25/4 18/13/4 29/26/4 30/27/4
f 5/28/3 4/29/3 16/30/3 17/25/3
f 4/29/3 3/31/3 15/32/3 16/30/3
f 3/31/3 2/33/3 14/34/3 15/32/3
f 1/9/6 13/12/6 32/35/6 36/36/6
f 43/11/4 45/37/4 44/38/4 46/39/4 48/40/4 47/20/4 24/19/4 13/12/4
f 12/18/2 11/41/2 23/42/2 24/19/2
f 11/41/2 10/43/2 22/44/2 23/42/2
f 10/43/2 9/45/2 21/46/2 22/44/2
f 9/45/2 8/47/2 20/48/2 21/46/2
f 8/47/2 7/5/2 19/8/2 20/48/2
f 13/12/4 24/19/4 23/42/4 14/34/4
f 14/34/4 23/42/4 22/44/4 15/32/4
f 15/32/4 22/44/4 21/46/4 16/30/4
f 16/30/4 21/46/4 20/48/4 17/25/4
f 17/25/4 20/48/4 19/8/4 18/13/4
f 37/49/7 41/50/7 46/39/7 44/38/7
f 1/9/5 2/33/5 11/41/5 12/18/5
f 2/33/5 3/31/5 10/43/5 11/41/5
f 3/31/5 4/29/5 9/45/5 10/43/5
f 4/29/5 5/28/5 8/47/5 9/45/5
f 5/28/5 6/21/5 7/5/5 8/47/5
f 14/34/8 2/33/8 35/51/8 31/52/8
f 5/28/9 17/25/9 30/27/9 34/53/9
f 13/12/4 14/34/4 31/52/4 32/35/4
f 28/54/4 61/55/4 62/56/4 29/57/4
f 40/17/10 47/20/10 48/40/10 42/58/10
f 42/58/11 48/40/11 46/39/11 41/50/11
f 43/11/12 38/10/12 39/59/12 45/37/12
f 45/37/13 39/59/13 37/49/13 44/38/13
f 37/49/5 39/59/5 38/10/5 1/9/5 12/18/5 40/17/5 42/58/5 41/50/5
f 49/22/14 56/16/14 57/15/14 51/23/14
f 51/23/15 57/15/15 55/3/15 50/2/15
f 58/7/16 53/6/16 54/24/16 60/14/16
f 60/14/17 54/24/17 52/1/17 59/4/17
f 49/22/3 6/21/3 18/13/3 56/16/3
f 18/13/18 6/21/18 33/60/18 29/26/18
f 26/61/7 72/62/7 71/63/7 25/64/7
f 30/27/4 29/26/4 62/65/4 64/66/4
f 70/67/3 69/68/3 68/69/3 65/70/3
f 66/71/3 67/72/3 64/66/3 62/65/3
f 64/66/3 67/72/3 70/67/3 65/70/3
f 62/65/3 61/73/3 63/74/3 66/71/3
f 69/68/3 71/75/3 72/76/3 68/69/3
f 27/77/1 63/78/1 61/55/1 28/54/1
f 32/35/4 31/52/4 65/70/4 68/69/4
f 30/79/4 64/80/4 65/81/4 31/82/4
f 32/83/4 68/84/4 72/62/4 26/61/4
f 28/54/2 29/26/2 33/85/2 27/77/2
f 31/52/2 35/51/2 34/86/2 30/27/2
f 32/83/2 26/61/2 25/64/2 36/87/2
usemtl tarmac_no_stripe
f 35/88/5 70/89/5 67/90/5 34/91/5
f 6/92/5 5/93/5 34/91/5 33/94/5
f 2/95/5 1/96/5 36/97/5 35/88/5
f 33/94/5 34/91/5 67/90/5 66/98/5
f 25/99/5 71/100/5 69/101/5 36/97/5
f 35/88/5 36/97/5 69/101/5 70/89/5
f 33/94/5 66/98/5 63/102/5 27/103/5
