# Blender v3.2.0 OBJ File: 'carrier.blend'
# www.blender.org
mtllib carrier collision.mtl
o carrier_collide_Cube.020
v -8.096088 -26.462662 176.171082
v -27.316433 -26.462662 -48.815411
v 16.047073 -26.462662 176.171082
v 24.899181 -26.462662 -48.815411
v -12.005311 -26.462662 -89.205269
v 15.183448 -26.462662 -89.205269
v -24.479778 -26.462662 148.911926
v 24.899181 -26.462662 148.911926
v -10.021496 -26.462662 155.273514
v 24.899181 -26.462662 155.273514
v -9.058792 -26.462662 160.267105
v 24.899181 -26.462662 160.267105
v -8.808489 -26.462662 164.402145
v 15.615262 -26.462662 164.402145
v 24.899181 -26.462662 -60.439281
v -22.910019 -26.462662 -60.439281
v -2.550731 -26.462662 -170.436050
v 5.081155 -26.462662 -170.436050
v -18.685089 15.955149 196.911469
v -56.510494 15.955149 -48.815418
v 46.249214 15.955149 -48.815418
v 28.828362 15.955149 196.911469
v -26.378391 15.955149 -89.205261
v 27.128765 15.955149 -89.205261
v 46.249214 15.955149 158.741959
v -50.927990 15.955149 158.741959
v -22.474266 15.955149 165.103546
v 46.249214 15.955149 165.103546
v -20.579678 15.955149 181.007507
v 46.249214 15.955149 181.007507
v -20.087086 15.955149 185.142532
v 27.978565 15.955149 185.142532
v -47.838722 15.955149 -60.439281
v 46.249214 15.955149 -60.439281
v -16.180817 15.955149 -167.802505
v 15.656497 15.955149 -167.802505
v -27.316433 -6.882866 -48.815411
v 24.899181 -6.882866 -48.815411
v 16.047073 -6.882866 187.081451
v -12.005311 -6.882866 -89.205269
v 15.183448 -6.882866 -89.205269
v 24.899181 -6.882866 148.911926
v -24.479778 -6.882866 148.911926
v -10.021496 -6.882866 155.273514
v 24.899181 -6.882866 155.273514
v -9.058792 -6.882866 171.177490
v 24.899181 -6.882866 171.177490
v -8.808489 -6.882866 175.312500
v 15.615262 -6.882866 175.312500
v -22.910019 -6.882866 -60.439281
v -2.550731 -6.882866 -161.950821
v 5.081155 -6.882866 -161.950821
v -8.096088 -6.882866 187.081451
v 24.899181 -6.882866 -60.439281
v -27.316433 -11.671010 -48.815411
v 24.899181 -11.671010 -48.815411
v 16.047073 -11.671010 176.171082
v -12.005311 -11.671010 -89.205269
v 15.183448 -11.671010 -89.205269
v 24.899181 -11.671010 148.911926
v -24.479778 -11.671010 148.911926
v -10.021496 -11.671010 155.273514
v 24.899181 -11.671010 155.273514
v -9.058792 -11.671010 160.267105
v 24.899181 -11.671010 160.267105
v -8.808489 -11.671010 164.402145
v 15.615262 -11.671010 164.402145
v -22.910019 -11.671010 -60.439281
v -2.550731 -11.671010 -175.410812
v 5.081155 -11.671010 -175.410812
v -8.096088 -11.671010 176.171082
v 24.899181 -11.671010 -60.439281
v -17.538031 23.155931 195.669388
v -18.685089 21.939466 196.911469
v -55.124725 23.155931 -48.815418
v -56.510494 21.976885 -48.815418
v 27.408669 23.155931 195.669388
v 28.828362 21.939383 196.911469
v 44.956451 23.155931 -48.815418
v 46.249214 21.975542 -48.815418
v -24.997723 23.155931 -89.205261
v -26.378391 22.021471 -89.205261
v 27.128765 22.019033 -89.205261
v 25.828808 23.155931 -89.205261
v -50.927990 21.962915 158.741959
v -49.543186 23.155931 158.741959
v 44.957203 23.155931 158.741959
v 46.249214 21.961939 158.741959
v 44.953964 23.155931 165.103546
v 46.249214 21.952185 165.103546
v -22.474266 21.952875 165.103546
v -21.162487 23.155931 165.103546
v 44.946468 23.155931 181.007507
v 46.249214 21.945494 181.007507
v -20.579678 21.945951 181.007507
v -19.277451 23.155931 181.007507
v 27.978565 21.941339 185.142532
v 26.645172 23.155931 185.142532
v -20.087086 21.941599 185.142532
v -18.790295 23.155931 185.142532
v 46.249214 21.994078 -60.439281
v 44.951641 23.155931 -60.439281
v -46.449104 23.155931 -60.439281
v -47.838722 21.995897 -60.439281
v -16.180817 22.068754 -176.107376
v -14.948481 23.155931 -176.342133
v 14.519599 23.155931 -176.342133
v 15.656497 22.068899 -176.107559
v 19.848778 19.793547 86.785416
v 19.848782 19.793547 34.766983
v 37.655651 19.793539 86.785416
v 37.655655 19.793547 34.766983
v 19.848782 19.793547 60.776199
v 37.655655 19.793547 60.776199
v 19.848778 19.793547 68.499680
v 37.655651 19.793547 68.499680
v 16.388672 47.076744 70.750839
v 16.388672 47.076744 96.142876
v 41.115765 47.076744 23.908741
v 16.388676 47.076744 23.908741
v 41.115765 47.076744 60.025814
v 41.115761 47.076736 96.142876
v 16.388676 47.076744 60.025814
v 41.115761 47.076744 70.750839
v 16.388672 56.375977 70.750839
v 16.388672 56.375977 96.142876
v 41.115765 56.375977 23.908741
v 16.388676 56.375977 23.908741
v 41.115765 56.375977 60.025814
v 41.115761 56.375969 96.142876
v 16.388676 56.375977 60.025814
v 41.115761 56.375977 70.750839
v 22.822994 61.143051 66.564636
v 22.822994 61.143051 78.741966
v 34.681438 61.143051 44.100449
v 22.823002 61.143051 44.100449
v 34.681438 61.143051 61.421211
v 34.681435 61.143051 78.741966
v 22.823002 61.143051 61.421211
v 34.681435 61.143051 66.564636
v 22.822994 72.667824 66.564636
v 22.822994 72.667824 78.741966
v 34.681438 72.667824 44.100449
v 22.823002 72.667824 44.100449
v 34.681438 72.667824 61.421211
v 34.681435 72.667824 78.741966
v 22.823002 72.667824 61.421211
v 34.681435 72.667824 66.564636
vt 0.564877 0.190159
vt 0.563040 0.186859
vt 0.569552 0.183240
vt 0.571388 0.186540
vt 0.500499 0.277752
vt 0.509834 0.277744
vt 0.510006 0.296359
vt 0.500672 0.296367
vt 0.478820 0.269323
vt 0.482619 0.269320
vt 0.482604 0.276633
vt 0.478793 0.276637
vt 0.029271 0.229549
vt 0.029271 0.621064
vt 0.002519 0.610273
vt 0.002519 0.222971
vt 0.457513 0.335461
vt 0.472932 0.335438
vt 0.473205 0.342845
vt 0.457963 0.342867
vt 0.623833 0.071763
vt 0.623833 0.934155
vt 0.096363 0.886059
vt 0.096363 0.071757
vt 0.510120 0.348004
vt 0.500779 0.351142
vt 0.478793 0.193927
vt 0.448611 0.193970
vt 0.455495 0.175857
vt 0.472660 0.175832
vt 0.515539 0.180161
vt 0.511725 0.180157
vt 0.511948 0.124946
vt 0.515825 0.130177
vt 0.482980 0.295747
vt 0.479154 0.295750
vt 0.653373 0.071804
vt 0.653373 0.859398
vt 0.445829 0.201290
vt 0.478793 0.201242
vt 0.478793 0.325681
vt 0.447620 0.325726
vt 0.726476 0.674552
vt 0.726476 0.236584
vt 0.947919 0.334035
vt 0.947919 0.587959
vt 0.482888 0.138728
vt 0.479098 0.138731
vt 0.479112 0.134728
vt 0.482897 0.134725
vt 0.039780 0.071849
vt 0.039780 0.625262
vt 0.578537 0.152446
vt 0.579813 0.156011
vt 0.562767 0.162149
vt 0.561489 0.158578
vt 0.478793 0.329685
vt 0.456747 0.329717
vt 0.080197 0.071784
vt 0.080197 0.641504
vt 0.561489 0.168355
vt 0.561489 0.163265
vt 0.581591 0.163265
vt 0.581591 0.168355
vt 0.479137 0.124722
vt 0.482917 0.124719
vt 0.478793 0.332828
vt 0.457355 0.332859
vt 0.552677 0.262825
vt 0.553959 0.259284
vt 0.563347 0.262478
vt 0.562063 0.266023
vt 0.557661 0.294069
vt 0.561440 0.294068
vt 0.561440 0.324043
vt 0.557661 0.324044
vt 0.561489 0.224369
vt 0.562836 0.220835
vt 0.573496 0.224930
vt 0.572149 0.228461
vt 0.550237 0.261993
vt 0.551518 0.258455
vt 0.515089 0.337458
vt 0.511313 0.337454
vt 0.510120 0.207100
vt 0.513905 0.207105
vt 0.510578 0.199346
vt 0.514375 0.199350
vt 0.500514 0.270438
vt 0.509849 0.270430
vt 0.461464 0.124726
vt 0.466282 0.124719
vt 0.530752 0.179450
vt 0.531019 0.133187
vt 0.570095 0.183240
vt 0.574914 0.183240
vt 0.530004 0.205645
vt 0.530219 0.198106
vt 0.569191 0.242691
vt 0.574555 0.244761
vt 0.544524 0.275963
vt 0.543291 0.259627
vt 0.551489 0.278380
vt 0.497757 0.142031
vt 0.497778 0.132024
vt 0.553935 0.279230
vt 0.497749 0.146034
vt 0.563347 0.282496
vt 0.580848 0.136358
vt 0.572114 0.139516
vt 0.497493 0.270441
vt 0.543291 0.302394
vt 0.543291 0.317626
vt 0.566028 0.206297
vt 0.572524 0.202696
vt 0.483127 0.345808
vt 0.479258 0.351037
vt 0.544857 0.131651
vt 0.561489 0.124719
vt 0.561489 0.255387
vt 0.543291 0.256090
vt 0.533993 0.329953
vt 0.530984 0.329950
vt 0.533013 0.205649
vt 0.561489 0.212258
vt 0.567985 0.208656
vt 0.563347 0.256134
vt 0.570458 0.256090
vt 0.570458 0.271332
vt 0.563347 0.271376
vt 0.533229 0.198110
vt 0.533762 0.179454
vt 0.500771 0.146031
vt 0.579829 0.133512
vt 0.571095 0.136670
vt 0.559385 0.284349
vt 0.562322 0.285326
vt 0.500779 0.142028
vt 0.556938 0.283500
vt 0.500785 0.138887
vt 0.549974 0.281082
vt 0.561489 0.254439
vt 0.561489 0.247327
vt 0.567370 0.244761
vt 0.567370 0.251873
vt 0.572189 0.244761
vt 0.572189 0.253367
vt 0.567370 0.253367
vt 0.567370 0.244761
vt 0.533973 0.124719
vt 0.497478 0.277754
vt 0.497651 0.296369
vt 0.497775 0.342676
vt 0.543060 0.179464
vt 0.543291 0.127860
vt 0.563347 0.290573
vt 0.563347 0.280738
vt 0.568166 0.280738
vt 0.568166 0.290573
vt 0.542311 0.205659
vt 0.542526 0.198120
vt 0.569096 0.271399
vt 0.569096 0.280738
vt 0.563347 0.280715
vt 0.563347 0.271376
vt 0.546807 0.289824
vt 0.553771 0.292241
vt 0.510113 0.142021
vt 0.510120 0.138879
vt 0.556218 0.293091
vt 0.510105 0.146023
vt 0.559155 0.294068
vt 0.576681 0.124719
vt 0.567947 0.127877
vt 0.562214 0.294071
vt 0.571553 0.294068
vt 0.571553 0.309299
vt 0.562214 0.309302
vt 0.566028 0.220414
vt 0.572524 0.216813
vt 0.543291 0.329964
vt 0.385344 0.148774
vt 0.381819 0.279738
vt 0.380944 0.279766
vt 0.384469 0.148802
vt 0.433450 0.132116
vt 0.433932 0.125474
vt 0.434829 0.124719
vt 0.434292 0.132144
vt 0.562214 0.294996
vt 0.562214 0.323352
vt 0.445009 0.287072
vt 0.445013 0.279738
vt 0.445829 0.279766
vt 0.445829 0.287100
vt 0.386420 0.287100
vt 0.387297 0.287072
vt 0.580848 0.156448
vt 0.563844 0.162564
vt 0.445013 0.148774
vt 0.445829 0.148802
vt 0.445011 0.144760
vt 0.445829 0.144788
vt 0.404454 0.134725
vt 0.403264 0.144760
vt 0.402435 0.144788
vt 0.403632 0.134753
vt 0.445006 0.134725
vt 0.445829 0.134753
vt 0.404762 0.132116
vt 0.403943 0.132144
vt 0.563877 0.220414
vt 0.574555 0.224513
vt 0.405552 0.125474
vt 0.404828 0.124719
vt 0.432935 0.305223
vt 0.433756 0.305250
vt 0.399970 0.305250
vt 0.400842 0.305223
vt 0.562267 0.162564
vt 0.580874 0.162564
vt 0.425794 0.360204
vt 0.426512 0.360082
vt 0.406409 0.360082
vt 0.407187 0.360204
vt 0.544572 0.256090
vt 0.400883 0.332951
vt 0.400883 0.356620
vt 0.468216 0.356620
vt 0.468216 0.332951
vt 0.400883 0.289287
vt 0.400883 0.322953
vt 0.468216 0.322953
vt 0.468216 0.289287
vt 0.468216 0.322953
vt 0.468216 0.332951
vt 0.468216 0.332951
vt 0.468216 0.322953
vt 0.400883 0.332951
vt 0.400883 0.322953
vt 0.400883 0.322953
vt 0.400883 0.332951
vt 0.400883 0.356620
vt 0.400883 0.356620
vt 0.468216 0.356620
vt 0.400883 0.289287
vt 0.468216 0.289287
vt 0.400883 0.332951
vt 0.400883 0.356620
vt 0.468216 0.289287
vt 0.468216 0.322953
vt 0.468216 0.289287
vt 0.400883 0.289287
vt 0.400883 0.289287
vt 0.400883 0.322953
vt 0.468216 0.356620
vt 0.468216 0.322953
vt 0.468216 0.289287
vt 0.400883 0.289287
vt 0.400883 0.322953
vt 0.468216 0.332951
vt 0.468216 0.356620
vt 0.468216 0.356620
vt 0.468216 0.332951
vt 0.400883 0.332951
vt 0.400883 0.356620
vn 0.9974 0.0000 -0.0720
vn 0.9474 0.0000 -0.3200
vn 1.0000 0.0000 0.0000
vn 0.0000 1.0000 0.0000
vn 0.0000 -1.0000 0.0000
vn 0.9926 -0.0201 -0.1198
vn -0.9891 -0.0831 -0.1219
vn 0.8328 0.0000 -0.5536
vn -0.2182 0.0000 0.9759
vn 0.0000 -0.8053 -0.5928
vn -0.9930 0.0000 0.1183
vn 0.0000 0.0000 1.0000
vn 0.2207 0.0000 0.9753
vn -0.9996 0.0000 0.0269
vn -0.8015 0.0000 -0.5980
vn -0.8411 -0.5297 -0.1092
vn 0.0000 -0.2482 -0.9687
vn -0.6063 -0.7184 -0.3411
vn 0.2438 -0.5297 0.8124
vn -0.8853 -0.4581 0.0795
vn 0.7305 -0.6829 0.0000
vn -0.8780 -0.4722 0.0789
vn -0.8685 -0.4894 0.0780
vn -0.2378 -0.5478 0.8021
vn -0.6973 -0.6000 -0.3923
vn 0.0000 -0.3954 0.9185
vn 0.8836 -0.4657 -0.0481
vn 0.9862 -0.0933 -0.1368
vn -0.6330 -0.7740 0.0132
vn -0.9999 0.0000 0.0143
vn 0.9959 0.0833 -0.0365
vn 0.0000 -0.9157 0.4019
vn -0.9351 0.0000 -0.3545
vn -0.4027 0.0000 0.9153
vn -0.9904 -0.1040 0.0912
vn -0.9888 -0.1364 0.0599
vn 0.1762 -0.9014 0.3956
vn 0.0000 0.9422 -0.3352
vn -0.9796 0.1638 -0.1165
vn 0.8833 -0.4516 -0.1259
vn 0.7490 -0.5460 -0.3754
vn -0.9935 -0.0189 -0.1122
vn 0.0000 -0.3188 -0.9478
vn 0.4069 0.0000 0.9135
vn -0.9982 0.0000 0.0604
vn -0.9819 0.0000 0.1893
vn 0.9993 0.0000 -0.0367
vn 0.9768 0.1745 -0.1242
vn -0.6503 0.7595 0.0175
vn 0.6734 0.7377 -0.0487
vn 0.0000 0.7144 0.6997
vn 0.6707 0.7417 0.0005
vn -0.5809 0.6893 -0.4329
vn -0.2121 0.2387 0.9476
vn 0.6765 0.7364 0.0000
vn 0.6797 0.7335 0.0007
vn -0.6761 0.7324 0.0805
vn 0.6807 0.7325 0.0003
vn -0.6799 0.7289 0.0809
vn 0.2145 0.2331 0.9485
vn -0.6818 0.7270 0.0812
vn 0.6066 0.6854 -0.4029
vn -0.5761 0.6955 -0.4294
vn -0.0000 -0.2110 -0.9775
vn 0.6761 0.7315 -0.0883
vn -0.6498 0.7563 -0.0754
vn -1.0000 0.0000 -0.0000
vn -0.9921 0.1258 0.0000
vn 0.9921 0.1258 0.0000
vn 0.0000 0.3244 -0.9459
vn 0.0000 0.3698 0.9291
vn 0.5953 -0.8035 0.0000
vn -0.5953 -0.8035 0.0000
vn 0.0000 0.0000 -1.0000
vn -0.0000 -0.9645 -0.2642
vn 0.0000 -0.9732 0.2298
usemtl Ship
s off
f 32/1/1 97/2/1 78/3/1 22/4/1
f 72/5/2 15/6/2 6/7/2 59/8/2
f 80/9/3 21/10/3 34/11/3 101/12/3
f 98/13/4 100/14/4 73/15/4 77/16/4
f 13/17/5 14/18/5 3/19/5 1/20/5
f 79/21/4 75/22/4 86/23/4 87/24/4
f 59/8/6 6/7/6 18/25/6 70/26/6
f 15/27/5 16/28/5 5/29/5 6/30/5
f 23/31/7 82/32/7 105/33/7 35/34/7
f 101/12/8 34/11/8 24/35/8 83/36/8
f 75/22/4 79/21/4 102/37/4 103/38/4
f 2/39/5 4/40/5 8/41/5 7/42/5
f 81/43/4 84/44/4 107/45/4 106/46/4
f 25/47/3 88/48/3 90/49/3 28/50/3
f 93/51/4 96/52/4 100/14/4 98/13/4
f 27/53/9 91/54/9 85/55/9 26/56/9
f 7/42/5 8/41/5 10/57/5 9/58/5
f 89/59/4 92/60/4 96/52/4 93/51/4
f 35/61/10 105/62/10 108/63/10 36/64/10
f 28/50/3 90/49/3 94/65/3 30/66/3
f 9/58/5 10/57/5 12/67/5 11/68/5
f 29/69/11 95/70/11 91/71/11 27/72/11
f 22/73/12 78/74/12 74/75/12 19/76/12
f 30/77/13 94/78/13 97/79/13 32/80/13
f 11/68/5 12/67/5 14/18/5 13/17/5
f 31/81/11 99/82/11 95/70/11 29/69/11
f 26/83/14 85/84/14 76/85/14 20/86/14
f 20/86/15 76/85/15 104/87/15 33/88/15
f 4/40/5 2/39/5 16/28/5 15/27/5
f 56/89/3 4/90/3 15/6/3 72/5/3
f 6/30/5 5/29/5 17/91/5 18/92/5
f 103/38/4 102/37/4 84/44/4 81/43/4
f 33/88/15 104/87/15 82/32/15 23/31/15
f 40/93/16 23/31/16 35/34/16 51/94/16
f 51/95/17 35/61/17 36/64/17 52/96/17
f 21/10/3 80/9/3 88/48/3 25/47/3
f 37/97/18 20/86/18 33/88/18 50/98/18
f 47/99/19 30/77/19 32/80/19 49/100/19
f 53/101/20 19/102/20 31/81/20 48/103/20
f 45/104/21 28/50/21 30/66/21 47/105/21
f 48/103/22 31/81/22 29/69/22 46/106/22
f 42/107/21 25/47/21 28/50/21 45/104/21
f 46/106/23 29/69/23 27/72/23 44/108/23
f 44/109/24 27/53/24 26/56/24 43/110/24
f 38/111/21 21/10/21 25/47/21 42/107/21
f 50/98/25 33/88/25 23/31/25 40/93/25
f 87/24/4 86/23/4 92/60/4 89/59/4
f 39/112/26 22/73/26 19/76/26 53/113/26
f 49/114/27 32/1/27 22/4/27 39/115/27
f 83/36/28 24/35/28 36/116/28 108/117/28
f 43/118/29 26/119/29 20/120/29 37/121/29
f 61/122/30 43/123/30 37/97/30 55/124/30
f 67/125/31 49/114/31 39/115/31 57/126/31
f 57/127/32 39/128/32 53/129/32 71/130/32
f 68/131/33 50/98/33 40/93/33 58/132/33
f 56/89/3 38/111/3 42/107/3 60/133/3
f 62/134/34 44/109/34 43/110/34 61/135/34
f 64/136/35 46/106/35 44/108/35 62/137/35
f 60/133/3 42/107/3 45/104/3 63/138/3
f 66/139/36 48/103/36 46/106/36 64/136/36
f 63/138/3 45/104/3 47/105/3 65/140/3
f 71/141/36 53/101/36 48/103/36 66/139/36
f 65/142/37 47/143/37 49/144/37 67/145/37
f 55/124/33 37/97/33 50/98/33 68/131/33
f 69/146/38 51/147/38 52/148/38 70/149/38
f 58/132/39 40/93/39 51/94/39 69/150/39
f 21/10/21 38/111/21 54/151/21 34/11/21
f 24/35/40 41/152/40 52/153/40 36/116/40
f 34/11/41 54/151/41 41/152/41 24/35/41
f 5/154/42 58/132/42 69/150/42 17/155/42
f 17/156/43 69/157/43 70/158/43 18/159/43
f 2/160/33 55/124/33 68/131/33 16/161/33
f 12/162/44 65/163/44 67/164/44 14/165/44
f 1/166/45 71/141/45 66/139/45 13/167/45
f 10/168/3 63/138/3 65/140/3 12/169/3
f 13/167/45 66/139/45 64/136/45 11/170/45
f 8/171/3 60/133/3 63/138/3 10/168/3
f 11/170/46 64/136/46 62/137/46 9/172/46
f 9/173/34 62/134/34 61/135/34 7/174/34
f 4/90/3 56/89/3 60/133/3 8/171/3
f 16/161/33 68/131/33 58/132/33 5/154/33
f 3/175/12 57/176/12 71/177/12 1/178/12
f 14/179/47 67/125/47 57/126/47 3/180/47
f 7/181/30 61/122/30 55/124/30 2/160/30
f 38/111/3 56/89/3 72/5/3 54/151/3
f 41/152/48 59/8/48 70/26/48 52/153/48
f 54/151/2 72/5/2 59/8/2 41/152/2
f 86/182/49 75/183/49 76/184/49 85/185/49
f 98/186/50 77/187/50 78/188/50 97/189/50
f 77/190/51 73/191/51 74/75/51 78/74/51
f 102/192/52 79/193/52 80/194/52 101/195/52
f 104/196/53 76/184/53 75/183/53 103/197/53
f 92/198/54 86/199/54 85/55/54 91/54/54
f 79/193/55 87/200/55 88/201/55 80/194/55
f 87/200/56 89/202/56 90/203/56 88/201/56
f 96/204/57 92/205/57 91/206/57 95/207/57
f 89/202/58 93/208/58 94/209/58 90/203/58
f 100/210/59 96/204/59 95/207/59 99/211/59
f 93/212/60 98/213/60 97/79/60 94/78/60
f 73/214/61 100/210/61 99/211/61 74/215/61
f 84/216/62 102/192/62 101/195/62 83/217/62
f 82/218/63 104/196/63 103/197/63 81/219/63
f 106/220/64 107/221/64 108/63/64 105/62/64
f 107/222/65 84/216/65 83/217/65 108/223/65
f 105/224/66 82/218/66 81/219/66 106/225/66
f 19/102/11 74/226/11 99/82/11 31/81/11
f 115/227/4 109/228/4 111/229/4 116/230/4
f 110/231/4 113/232/4 114/233/4 112/234/4
f 113/232/4 115/227/4 116/230/4 114/233/4
f 121/235/67 124/236/67 132/237/67 129/238/67
f 117/239/3 123/240/3 131/241/3 125/242/3
f 118/243/3 117/239/3 125/242/3 126/244/3
f 116/230/68 111/229/68 122/245/68 124/236/68
f 113/232/69 110/231/69 120/246/69 123/240/69
f 112/234/68 114/233/68 121/235/68 119/247/68
f 109/228/69 115/227/69 117/239/69 118/243/69
f 115/227/69 113/232/69 123/240/69 117/239/69
f 114/233/68 116/230/68 124/236/68 121/235/68
f 111/229/70 109/228/70 118/243/70 122/245/70
f 110/231/71 112/234/71 119/247/71 120/246/71
f 126/244/72 125/242/72 133/248/72 134/249/72
f 127/250/73 129/238/73 137/251/73 135/252/73
f 131/241/72 128/253/72 136/254/72 139/255/72
f 122/245/74 118/243/74 126/244/74 130/256/74
f 120/246/12 119/247/12 127/250/12 128/253/12
f 124/236/67 122/245/67 130/256/67 132/237/67
f 123/240/3 120/246/3 128/253/3 131/241/3
f 119/247/67 121/235/67 129/238/67 127/250/67
f 135/252/67 137/251/67 145/257/67 143/258/67
f 139/255/3 136/254/3 144/259/3 147/260/3
f 140/261/67 138/262/67 146/263/67 148/264/67
f 125/242/72 131/241/72 139/255/72 133/248/72
f 129/238/73 132/237/73 140/261/73 137/251/73
f 130/256/75 126/244/75 134/249/75 138/262/75
f 128/253/76 127/250/76 135/252/76 136/254/76
f 132/237/73 130/256/73 138/262/73 140/261/73
f 141/265/5 148/264/5 146/263/5 142/266/5
f 144/259/5 143/258/5 145/257/5 147/260/5
f 147/260/5 145/257/5 148/264/5 141/265/5
f 134/249/3 133/248/3 141/265/3 142/266/3
f 133/248/3 139/255/3 147/260/3 141/265/3
f 137/251/67 140/261/67 148/264/67 145/257/67
f 138/262/74 134/249/74 142/266/74 146/263/74
f 136/254/12 135/252/12 143/258/12 144/259/12
