# Blender v3.2.0 OBJ File: 'plane meshes 2.blend'
# www.blender.org
mtllib flap.mtl
o Flap.001_Sphere.005
v 0.703961 0.009825 -0.122652
v 0.011827 0.118868 -0.021504
v -0.729570 0.130014 0.123507
v 0.703287 -0.169636 -0.122652
v 0.004513 -0.175378 -0.021504
v -0.743035 -0.075101 0.123507
v -0.694932 0.115842 0.363642
v 0.042264 0.088996 0.238180
v 0.735882 -0.001993 0.085416
v -0.707044 -0.072056 0.363642
v 0.036185 -0.155460 0.238180
v 0.735215 -0.166135 0.085416
v 0.710600 -0.029408 -0.314525
v 0.716651 -0.078753 -0.375942
v 0.710232 -0.128202 -0.314525
v 0.001542 0.055046 -0.232614
v 0.003045 -0.025004 -0.305260
v -0.002458 -0.105987 -0.232614
v -0.745454 0.087120 -0.094308
v -0.733857 0.030676 -0.164973
v -0.752818 -0.025054 -0.094308
v -0.490038 0.161781 0.074908
v -0.505971 -0.142584 0.074908
v -0.469055 0.131329 0.345184
v -0.482296 -0.121663 0.345184
v -0.505941 0.096218 -0.142353
v -0.512132 0.013971 -0.216047
v -0.514655 -0.070224 -0.142353
v 0.525472 0.071369 -0.098176
v 0.523171 -0.204584 -0.098176
v 0.569065 0.042263 0.140904
v 0.567153 -0.186320 0.140904
v 0.527646 0.010768 -0.296486
v 0.541935 -0.065558 -0.366621
v 0.526388 -0.140874 -0.296486
v 0.295561 0.092960 -0.065885
v -0.642689 0.168027 0.106253
v 0.291367 -0.191913 -0.065885
v -0.660714 -0.125794 0.106253
v -0.238415 0.112555 0.295581
v 0.697202 0.025643 0.113712
v 0.724282 0.016380 0.002277
v 0.027978 0.132311 0.121725
v -0.715802 0.137977 0.269713
v -0.248095 -0.137316 0.295581
v 0.696117 -0.188443 0.113712
v -0.730627 -0.088551 0.269713
v 0.019862 -0.194102 0.121725
v 0.723527 -0.181346 0.002277
v 0.720387 -0.054647 -0.362421
v 0.720204 -0.103645 -0.362420
v 0.291540 0.030784 -0.270524
v 0.299653 -0.047345 -0.341916
v 0.289246 -0.125417 -0.270524
v 0.002605 0.016077 -0.286942
v 0.000561 -0.066233 -0.286942
v -0.659445 0.104982 -0.112079
v -0.664808 0.025525 -0.185117
v -0.669304 -0.055701 -0.112079
v -0.746684 0.059365 -0.146934
v -0.750327 0.003848 -0.146934
v 0.700105 -0.149907 -0.233131
v -0.002403 -0.142787 -0.143439
v -0.749457 -0.051505 -0.003491
v -0.738813 0.110643 -0.003491
v 0.003379 0.089903 -0.143439
v 0.700637 -0.007558 -0.233131
v 0.718283 -0.080993 -0.124653
v 0.746391 -0.085005 0.100595
v 0.724717 -0.079890 -0.314434
v -0.763709 0.029510 0.129097
v -0.711749 0.022458 0.385692
v -0.776538 0.033084 -0.087224
v 0.044936 -0.034089 0.280177
v -0.263310 0.142763 0.029084
v -0.274957 -0.157848 0.029084
v -0.622162 0.137874 0.373204
v -0.637028 -0.105269 0.373204
v -0.277367 0.077838 -0.186069
v -0.280588 -0.003568 -0.259438
v -0.283736 -0.086558 -0.186069
v -0.471824 0.004043 0.388994
v -0.499773 0.131939 -0.050993
v -0.512369 -0.108659 -0.050993
v -0.514117 -0.028783 -0.197567
v -0.509663 0.056271 -0.197567
v -0.495010 -0.161863 0.223779
v -0.477331 0.175882 0.223779
v 0.652541 0.053780 -0.115591
v 0.651244 -0.205918 -0.115591
v 0.332945 0.063495 0.183317
v 0.329459 -0.172851 0.183317
v 0.658205 -0.003409 -0.310107
v 0.674117 -0.075502 -0.378124
v 0.657496 -0.146305 -0.310107
v 0.576795 -0.073025 0.179412
v 0.520688 0.044087 -0.212031
v 0.518869 -0.174598 -0.212031
v 0.536653 -0.104146 -0.348747
v 0.537296 -0.026538 -0.348747
v 0.543987 -0.222138 0.034004
v 0.546540 0.083422 0.034004
v 0.674383 0.064788 0.012742
v -0.249191 0.156641 0.175950
v -0.262114 -0.176939 0.175950
v 0.672942 -0.222397 0.012742
v 0.297006 -0.007327 -0.323818
v 0.295834 -0.087214 -0.323818
v -0.663527 0.066467 -0.167049
v -0.668565 -0.015645 -0.167049
v 0.285605 -0.160647 -0.183728
v -0.666746 -0.092930 -0.020445
v -0.652496 0.139340 -0.020445
v 0.288921 0.064852 -0.183728
v 0.738538 -0.083575 0.001635
v 0.715049 -0.079830 -0.234660
v 0.731875 -0.080085 -0.355426
v -0.749558 0.026653 0.277194
v -0.771507 0.031628 0.002167
v -0.774507 0.033469 -0.132968
v -0.627529 0.015646 0.415881
v 0.338457 -0.055605 0.223537
v -0.238673 -0.013193 0.338740
v -0.272706 0.113237 -0.095440
v -0.281913 -0.124399 -0.095440
v -0.282563 -0.045745 -0.241003
v -0.279308 0.038265 -0.241003
v -0.650392 -0.144374 0.255239
v -0.630420 0.181393 0.255239
v 0.706410 -0.082441 0.149640
v 0.648823 0.028124 -0.227142
v 0.647798 -0.177817 -0.227142
v 0.669326 -0.111880 -0.361237
v 0.669688 -0.038718 -0.361237
v 0.309646 -0.210046 0.071727
v 0.314300 0.105701 0.071727
vt 0.662295 0.661551
vt 0.674575 0.660306
vt 0.670043 0.727586
vt 0.643280 0.728823
vt 0.686854 0.659061
vt 0.692780 0.746243
vt 0.690618 0.808673
vt 0.668091 0.786613
vt 0.640434 0.788471
vt 0.419083 0.679356
vt 0.477162 0.676893
vt 0.477748 0.748802
vt 0.429300 0.751906
vt 0.535241 0.674431
vt 0.535469 0.743705
vt 0.535017 0.807594
vt 0.477687 0.814248
vt 0.430068 0.818170
vt 0.440371 0.779810
vt 0.440940 0.878726
vt 0.497079 0.878681
vt 0.494734 0.779444
vt 0.428947 1.000000
vt 0.495300 1.000000
vt 0.561652 1.000000
vt 0.567903 0.878607
vt 0.563844 0.778851
vt 0.703970 0.777214
vt 0.716246 0.878402
vt 0.752970 0.877792
vt 0.741505 0.774545
vt 0.739653 1.000000
vt 0.756857 1.000000
vt 0.774060 1.000000
vt 0.774060 0.875000
vt 0.774060 0.750000
vt 0.646600 0.874012
vt 0.651850 0.901229
vt 0.601779 0.915059
vt 0.597917 0.886784
vt 0.656753 0.919993
vt 0.605409 0.934497
vt 0.542456 0.949604
vt 0.540167 0.929474
vt 0.537757 0.900115
vt 0.660280 0.931895
vt 0.608029 0.946799
vt 0.662419 0.938603
vt 0.609622 0.953720
vt 0.545136 0.969462
vt 0.544119 0.962320
vt 0.431032 0.914087
vt 0.431901 0.944483
vt 0.398176 0.948170
vt 0.397661 0.917935
vt 0.432736 0.965289
vt 0.398672 0.969284
vt 0.373625 0.976659
vt 0.373336 0.952037
vt 0.373047 0.927415
vt 0.433347 0.978417
vt 0.399030 0.982231
vt 0.433722 0.985782
vt 0.399252 0.989701
vt 0.373895 0.994804
vt 0.373760 0.985732
vt 0.665039 0.941352
vt 0.610730 0.957016
vt 0.682789 0.937702
vt 0.612713 0.958435
vt 0.542636 0.979167
vt 0.545367 0.973273
vt 0.432895 0.989414
vt 0.399106 0.993113
vt 0.421845 0.992219
vt 0.397889 0.994807
vt 0.373933 0.997396
vt 0.373914 0.996100
vt 0.430357 0.872352
vt 0.397263 0.875597
vt 0.397087 0.821411
vt 0.372874 0.879482
vt 0.372701 0.831549
vt 0.642316 0.836838
vt 0.594796 0.848085
vt 0.593433 0.797796
vt 0.535845 0.859858
vt 0.730457 0.704531
vt 0.729061 0.799371
vt 0.724161 0.871251
vt 0.708944 0.927415
vt 0.702627 0.900040
vt 0.713001 0.896217
vt 0.741502 0.963708
vt 0.689365 0.875886
vt 0.688875 0.849675
vt 0.698925 0.902921
vt 0.692199 0.894873
vt 0.699325 0.914988
vt 0.694074 0.907506
vt 0.373009 0.681309
vt 0.372855 0.756429
vt 0.376236 0.815725
vt 0.382838 0.747691
vt 0.374554 0.893865
vt 0.376310 1.000000
vt 0.384483 0.863475
vt 0.388358 0.791089
vt 0.375103 0.997402
vt 0.373992 0.935807
vt 0.373630 0.956397
vt 0.373546 0.965564
vt 0.396046 0.680333
vt 0.401511 0.722078
vt 0.435314 0.718198
vt 0.404750 0.781970
vt 0.598768 0.667991
vt 0.621972 0.712513
vt 0.680421 0.709899
vt 0.552308 0.715269
vt 0.639981 0.778007
vt 0.487702 0.717052
vt 0.478167 0.867763
vt 0.479287 0.908991
vt 0.483704 0.983479
vt 0.483720 0.979868
vt 0.482240 0.985693
vt 0.483103 0.972583
vt 0.482098 0.959601
vt 0.480722 0.939030
vt 0.404871 0.877520
vt 0.402629 1.000000
vt 0.396971 0.754040
vt 0.712114 0.708017
vt 0.669763 0.833152
vt 0.674121 0.868235
vt 0.709412 0.928551
vt 0.693844 0.932889
vt 0.692171 0.929902
vt 0.709880 0.929688
vt 0.696334 0.933695
vt 0.689077 0.922896
vt 0.684811 0.911527
vt 0.679680 0.893876
vt 0.647868 0.878501
vt 0.650653 1.000000
vt 0.594769 0.736074
vn 0.2103 0.6942 0.6883
vn 0.4935 0.6474 0.5808
vn 0.4143 0.9090 0.0457
vn 0.1360 0.9844 0.1119
vn 0.8823 0.3981 0.2509
vn 0.8676 0.4909 -0.0794
vn 0.8462 0.5122 -0.1469
vn 0.3667 0.9136 -0.1756
vn 0.0890 0.9815 -0.1695
vn 0.1813 0.6928 0.6980
vn 0.2024 0.6920 0.6930
vn 0.1085 0.9872 0.1171
vn 0.0850 0.9889 0.1217
vn 0.1957 0.6943 0.6925
vn 0.1105 0.9871 0.1156
vn 0.0588 0.9839 -0.1685
vn 0.0516 0.9845 -0.1675
vn 0.0287 0.9862 -0.1632
vn 0.0744 -0.7168 0.6933
vn -0.0668 -0.9926 0.1014
vn -0.0431 -0.9942 0.0982
vn 0.0962 -0.7167 0.6907
vn -0.1215 -0.9754 -0.1841
vn -0.0986 -0.9773 -0.1873
vn -0.0904 -0.9782 -0.1872
vn -0.0398 -0.9944 0.0981
vn 0.0906 -0.7161 0.6921
vn 0.1084 -0.7144 0.6913
vn -0.0117 -0.9952 0.0970
vn 0.3020 -0.9528 0.0301
vn 0.4233 -0.6897 0.5875
vn -0.0589 -0.9807 -0.1866
vn 0.2473 -0.9485 -0.1980
vn 0.8129 -0.5580 -0.1667
vn 0.8379 -0.5380 -0.0928
vn 0.8608 -0.4426 0.2514
vn 0.0351 0.8813 -0.4713
vn -0.0202 0.6372 -0.7705
vn -0.0384 0.6318 -0.7741
vn 0.0162 0.8786 -0.4774
vn -0.0929 0.0035 -0.9957
vn -0.1107 0.0044 -0.9938
vn -0.1394 0.0064 -0.9902
vn -0.0619 0.6294 -0.7746
vn 0.0010 0.8781 -0.4786
vn -0.1151 -0.6265 -0.7709
vn -0.1321 -0.6190 -0.7742
vn -0.0974 -0.8711 -0.4813
vn -0.1156 -0.8656 -0.4873
vn -0.1309 -0.8624 -0.4890
vn -0.1550 -0.6131 -0.7747
vn -0.0315 0.8802 -0.4736
vn -0.1038 0.6308 -0.7690
vn -0.1763 0.6484 -0.7406
vn -0.1556 0.8901 -0.4283
vn -0.1899 0.0122 -0.9817
vn -0.2405 0.0170 -0.9705
vn -0.3972 0.0284 -0.9173
vn -0.5502 0.5461 -0.6317
vn -0.6109 0.7516 -0.2487
vn -0.1971 -0.6053 -0.7712
vn -0.2703 -0.6110 -0.7441
vn -0.1643 -0.8582 -0.4863
vn -0.2861 -0.8502 -0.4420
vn -0.7102 -0.6539 -0.2608
vn -0.6208 -0.4602 -0.6347
vn -0.0778 -0.9469 -0.3119
vn -0.0988 -0.9437 -0.3156
vn -0.0825 -0.9789 -0.1868
vn -0.1097 -0.9422 -0.3166
vn -0.1409 -0.9390 -0.3136
vn -0.3164 -0.9096 -0.2693
vn -0.3419 -0.9285 -0.1450
vn -0.8190 -0.5732 -0.0272
vn -0.7794 -0.6157 -0.1158
vn 0.0042 0.9554 -0.2954
vn -0.1777 0.9516 -0.2508
vn -0.2016 0.9716 -0.1242
vn -0.6861 0.7204 -0.1016
vn -0.7322 0.6810 -0.0126
vn 0.0658 0.9526 -0.2970
vn 0.0447 0.9527 -0.3005
vn 0.0658 0.9834 -0.1691
vn 0.0345 0.9531 -0.3005
vn 0.9386 -0.0110 0.3449
vn 0.9916 -0.0056 -0.1295
vn 0.9945 -0.0054 -0.1050
vn 0.6922 -0.6967 -0.1884
vn 0.9959 -0.0094 0.0902
vn 0.9997 -0.0063 0.0233
vn 0.7707 -0.6245 -0.1268
vn 0.7427 0.6480 -0.1688
vn 0.8111 0.5750 -0.1077
vn 0.9815 -0.0101 -0.1913
vn 0.6628 0.5211 -0.5378
vn 0.6223 -0.5544 -0.5527
vn 0.4045 -0.0127 -0.9145
vn -0.5902 0.5437 0.5967
vn -0.7211 0.6673 0.1861
vn -0.9783 0.0643 0.1970
vn -0.6872 0.0445 0.7251
vn -0.9959 0.0660 0.0612
vn -0.8078 -0.5641 0.1709
vn -0.6614 -0.4647 0.5888
vn -0.9976 0.0664 0.0199
vn -0.9940 0.0674 -0.0859
vn -0.9156 0.0647 -0.3969
vn -0.0802 0.6969 0.7126
vn -0.0601 0.0029 0.9982
vn 0.1889 -0.0114 0.9819
vn -0.1834 -0.6858 0.7043
vn 0.1894 0.6950 0.6936
vn 0.1853 -0.0051 0.9827
vn 0.2032 -0.0043 0.9791
vn 0.1955 -0.0072 0.9807
vn 0.0855 -0.7143 0.6946
vn 0.2060 -0.0100 0.9785
vn 0.0240 0.9537 -0.3000
vn -0.0147 0.8781 -0.4783
vn -0.1210 -0.9407 -0.3171
vn -0.1471 -0.8594 -0.4898
vn -0.1794 -0.6077 -0.7736
vn -0.1704 0.0093 -0.9853
vn -0.0865 0.6287 -0.7728
vn -0.3089 -0.9435 0.1202
vn -0.1669 0.9758 0.1413
vn 0.4922 -0.0099 0.8704
vn 0.3111 0.9150 -0.2567
vn 0.2317 0.8833 -0.4075
vn 0.1858 -0.9425 -0.2777
vn 0.1048 -0.8991 -0.4250
vn 0.0155 -0.6735 -0.7390
vn 0.0001 0.0026 -1.0000
vn 0.1162 0.6722 -0.7312
vn -0.0364 -0.9944 0.0992
vn 0.1127 0.9869 0.1155
usemtl Plane_Body.001
s 1
f 31/1/1 41/2/2 103/3/3 102/4/4
f 41/2/2 9/5/5 42/6/6 103/3/3
f 103/3/3 42/6/6 1/7/7 89/8/8
f 102/4/4 103/3/3 89/8/8 29/9/9
f 24/10/10 40/11/11 104/12/12 88/13/13
f 40/11/11 8/14/14 43/15/15 104/12/12
f 104/12/12 43/15/15 2/16/16 75/17/17
f 88/13/13 104/12/12 75/17/17 22/18/18
f 25/19/19 87/20/20 105/21/21 45/22/22
f 87/20/20 23/23/23 76/24/24 105/21/21
f 105/21/21 76/24/24 5/25/25 48/26/26
f 45/22/22 105/21/21 48/26/26 11/27/27
f 32/28/28 101/29/29 106/30/30 46/31/31
f 101/29/29 30/32/32 90/33/33 106/30/30
f 106/30/30 90/33/33 4/34/34 49/35/35
f 46/31/31 106/30/30 49/35/35 12/36/36
f 33/37/37 100/38/38 107/39/39 52/40/40
f 100/38/38 34/41/41 53/42/42 107/39/39
f 107/39/39 53/42/42 17/43/43 55/44/44
f 52/40/40 107/39/39 55/44/44 16/45/45
f 34/41/41 99/46/46 108/47/47 53/42/42
f 99/46/46 35/48/48 54/49/49 108/47/47
f 108/47/47 54/49/49 18/50/50 56/51/51
f 53/42/42 108/47/47 56/51/51 17/43/43
f 26/52/52 86/53/53 109/54/54 57/55/55
f 86/53/53 27/56/56 58/57/57 109/54/54
f 109/54/54 58/57/57 20/58/58 60/59/59
f 57/55/55 109/54/54 60/59/59 19/60/60
f 27/56/56 85/61/61 110/62/62 58/57/57
f 85/61/61 28/63/63 59/64/64 110/62/62
f 110/62/62 59/64/64 21/65/65 61/66/66
f 58/57/57 110/62/62 61/66/66 20/58/58
f 35/48/48 98/67/67 111/68/68 54/49/49
f 98/67/67 30/69/32 38/70/69 111/68/68
f 111/68/68 38/70/69 5/71/25 63/72/70
f 54/49/49 111/68/68 63/72/70 18/50/50
f 28/63/63 84/73/71 112/74/72 59/64/64
f 84/73/71 23/75/23 39/76/73 112/74/72
f 112/74/72 39/76/73 6/77/74 64/78/75
f 59/64/64 112/74/72 64/78/75 21/65/65
f 22/18/18 83/79/76 113/80/77 37/81/78
f 83/79/76 26/52/52 57/55/55 113/80/77
f 113/80/77 57/55/55 19/60/60 65/82/79
f 37/81/78 113/80/77 65/82/79 3/83/80
f 29/9/9 97/84/81 114/85/82 36/86/83
f 97/84/81 33/37/37 52/40/40 114/85/82
f 114/85/82 52/40/40 16/45/45 66/87/84
f 36/86/83 114/85/82 66/87/84 2/16/16
f 9/5/5 69/88/85 115/89/86 42/6/6
f 69/88/85 12/36/36 49/35/35 115/89/86
f 115/89/86 49/35/35 4/34/34 68/90/87
f 42/6/6 115/89/86 68/90/87 1/7/7
f 15/91/88 70/92/89 116/93/90 62/94/91
f 70/92/89 13/95/92 67/96/93 116/93/90
f 116/93/90 67/96/93 1/7/7 68/90/87
f 62/94/91 116/93/90 68/90/87 4/34/34
f 13/95/92 70/92/89 117/97/94 50/98/95
f 15/91/88 51/99/96 117/97/94 70/92/89
f 14/100/97 50/98/95 117/97/94 51/99/96
f 7/101/98 44/102/99 118/103/100 72/104/101
f 44/102/99 3/83/80 71/105/102 118/103/100
f 118/103/100 71/105/102 6/106/74 47/107/103
f 72/104/101 118/103/100 47/107/103 10/108/104
f 21/65/65 64/109/75 119/110/105 73/111/106
f 64/109/75 6/106/74 71/105/102 119/110/105
f 119/110/105 71/105/102 3/83/80 65/82/79
f 73/111/106 119/110/105 65/82/79 19/60/60
f 19/60/60 60/59/59 120/112/107 73/111/106
f 20/58/58 61/66/66 120/112/107 60/59/59
f 21/65/65 73/111/106 120/112/107 61/66/66
f 24/10/10 77/113/108 121/114/109 82/115/110
f 77/113/108 7/101/98 72/104/101 121/114/109
f 121/114/109 72/104/101 10/108/104 78/116/111
f 82/115/110 121/114/109 78/116/111 25/19/19
f 31/1/1 91/117/112 122/118/113 96/119/114
f 91/117/112 8/14/14 74/120/115 122/118/113
f 122/118/113 74/120/115 11/27/27 92/121/116
f 96/119/114 122/118/113 92/121/116 32/28/28
f 8/14/14 40/11/11 123/122/117 74/120/115
f 40/11/11 24/10/10 82/115/110 123/122/117
f 123/122/117 82/115/110 25/19/19 45/22/22
f 74/120/115 123/122/117 45/22/22 11/27/27
f 2/16/16 66/87/84 124/123/118 75/17/17
f 66/87/84 16/45/45 79/124/119 124/123/118
f 124/123/118 79/124/119 26/52/52 83/79/76
f 75/17/17 124/123/118 83/79/76 22/18/18
f 18/50/50 63/72/70 125/125/120 81/126/121
f 63/72/70 5/71/25 76/127/24 125/125/120
f 125/125/120 76/127/24 23/75/23 84/73/71
f 81/126/121 125/125/120 84/73/71 28/63/63
f 17/43/43 56/51/51 126/128/122 80/129/123
f 56/51/51 18/50/50 81/126/121 126/128/122
f 126/128/122 81/126/121 28/63/63 85/61/61
f 80/129/123 126/128/122 85/61/61 27/56/56
f 16/45/45 55/44/44 127/130/124 79/124/119
f 55/44/44 17/43/43 80/129/123 127/130/124
f 127/130/124 80/129/123 27/56/56 86/53/53
f 79/124/119 127/130/124 86/53/53 26/52/52
f 10/108/104 47/107/103 128/131/125 78/116/111
f 47/107/103 6/106/74 39/132/73 128/131/125
f 128/131/125 39/132/73 23/23/23 87/20/20
f 78/116/111 128/131/125 87/20/20 25/19/19
f 7/101/98 77/113/108 129/133/126 44/102/99
f 77/113/108 24/10/10 88/13/13 129/133/126
f 129/133/126 88/13/13 22/18/18 37/81/78
f 44/102/99 129/133/126 37/81/78 3/83/80
f 9/5/5 41/2/2 130/134/127 69/88/85
f 41/2/2 31/1/1 96/119/114 130/134/127
f 130/134/127 96/119/114 32/28/28 46/31/31
f 69/88/85 130/134/127 46/31/31 12/36/36
f 1/7/7 67/96/93 131/135/128 89/8/8
f 67/96/93 13/95/92 93/136/129 131/135/128
f 131/135/128 93/136/129 33/37/37 97/84/81
f 89/8/8 131/135/128 97/84/81 29/9/9
f 15/91/88 62/137/91 132/138/130 95/139/131
f 62/137/91 4/140/34 90/141/33 132/138/130
f 132/138/130 90/141/33 30/69/32 98/67/67
f 95/139/131 132/138/130 98/67/67 35/48/48
f 14/100/97 51/99/96 133/142/132 94/143/133
f 51/99/96 15/91/88 95/139/131 133/142/132
f 133/142/132 95/139/131 35/48/48 99/46/46
f 94/143/133 133/142/132 99/46/46 34/41/41
f 13/95/92 50/98/95 134/144/134 93/136/129
f 50/98/95 14/100/97 94/143/133 134/144/134
f 134/144/134 94/143/133 34/41/41 100/38/38
f 93/136/129 134/144/134 100/38/38 33/37/37
f 11/27/27 48/26/26 135/145/135 92/121/116
f 48/26/26 5/25/25 38/146/69 135/145/135
f 135/145/135 38/146/69 30/32/32 101/29/29
f 92/121/116 135/145/135 101/29/29 32/28/28
f 8/14/14 91/117/112 136/147/136 43/15/15
f 91/117/112 31/1/1 102/4/4 136/147/136
f 136/147/136 102/4/4 29/9/9 36/86/83
f 43/15/15 136/147/136 36/86/83 2/16/16
