# Blender v3.2.0 OBJ File: 'world.blend'
# www.blender.org
mtllib rock.mtl
o Rock4.002_Icosphere.008
v -0.645055 -0.081797 -0.142295
v -0.138480 -0.110695 -0.374647
v -0.665608 -0.099880 0.376515
v -0.402587 0.313862 -0.401684
v 0.093720 0.354689 0.123830
v -0.016913 0.452920 0.546953
v -0.601916 0.414770 0.608671
v -0.752248 0.148065 0.019644
v -0.362980 0.677473 0.161864
v -0.232626 -0.213236 -0.047673
v -0.400204 -0.140302 -0.361213
v -0.553266 -0.196623 0.287129
v 0.095732 -0.090927 0.154433
v -0.166066 -0.190867 0.455135
v -0.129508 -0.093147 0.637196
v -0.500532 -0.094753 0.634212
v -0.254382 0.099071 -0.545939
v -0.555443 0.099071 -0.377110
v 0.138897 0.105607 0.097621
v 0.006225 0.099071 -0.319611
v -0.095663 0.155442 0.675661
v 0.102361 0.109668 0.454514
v -0.613688 0.108806 0.622630
v -0.385838 0.154987 0.738160
v -0.630163 0.351574 -0.120731
v -0.149015 0.351573 -0.335498
v -0.250902 0.582236 0.659767
v -0.586550 0.563985 0.219416
v -0.147409 0.679720 0.350249
v -0.439001 0.662564 0.491321
vt 0.727272 0.157461
vt 0.616451 0.078731
vt 0.582903 0.159436
vt 0.454545 0.000000
vt 0.409090 0.078731
vt 0.500000 0.078731
vt 0.675837 0.246550
vt 0.909090 0.157461
vt 0.818181 0.157461
vt 0.863635 0.236191
vt 0.454545 0.157461
vt 0.500000 0.236191
vt 0.772726 0.236191
vt 0.954545 0.236191
vt 0.147204 0.157461
vt 0.136363 0.236191
vt 0.227273 0.236191
vt 0.320900 0.157461
vt 0.318182 0.236191
vt 0.409090 0.236191
vt 0.818181 0.314921
vt 0.727272 0.314921
vt 0.737481 0.454698
vt 1.000000 0.314921
vt 0.909091 0.314921
vt 0.954545 0.393651
vt 0.272727 0.314921
vt 0.140874 0.314921
vt 0.210280 0.393651
vt 0.491317 0.314921
vt 0.363636 0.314921
vt 0.409090 0.393651
vt 0.590909 0.393651
vt 0.500000 0.393651
vt 0.545454 0.472382
vt 0.318182 0.393651
vt 0.363636 0.472382
vt 0.898880 0.454698
vt 0.681818 0.393651
vt 0.045454 0.236191
vt 0.000000 0.157461
vt 0.284215 0.078731
vt 0.136363 0.078731
vt 0.049770 0.071255
vt 0.859320 0.071255
vt 0.772726 0.078731
vn -0.6753 -0.7357 -0.0524
vn -0.0047 -0.9990 0.0451
vn -0.9182 -0.3929 -0.0501
vn 0.0302 -0.6221 -0.7823
vn -0.7686 -0.3988 0.5003
vn -0.8955 -0.1146 -0.4300
vn 0.6355 -0.2464 -0.7317
vn 0.9774 -0.1851 0.1022
vn 0.2075 -0.1771 0.9621
vn -0.4449 0.7665 -0.4633
vn 0.6286 0.7010 -0.3369
vn 0.8284 0.5531 0.0882
vn -0.3846 0.5893 0.7105
vn -0.9393 0.3311 0.0898
vn -0.4654 0.8825 -0.0674
vn -0.7723 0.6028 0.2006
vn -0.0415 0.9985 0.0356
vn 0.1047 0.9380 0.3304
vn 0.5851 0.6967 0.4151
vn 0.3457 0.8461 -0.4057
vn 0.0168 0.8396 -0.5429
vn -0.4945 0.7643 -0.4139
vn -0.8905 0.4284 -0.1534
vn -0.9700 0.0105 0.2428
vn -0.9846 0.0456 0.1690
vn -0.2561 0.2521 0.9332
vn 0.2091 0.1122 0.9714
vn 0.5195 0.2197 0.8257
vn 0.9430 0.2787 0.1819
vn 0.9809 0.1675 0.0985
vn 0.7853 0.4565 -0.4181
vn 0.6178 0.3351 -0.7114
vn 0.1149 0.6073 -0.7862
vn -0.6793 0.4141 -0.6058
vn -0.8663 0.2058 -0.4551
vn -0.4608 0.0581 0.8856
vn -0.4155 -0.1803 0.8915
vn -0.0058 -0.3820 0.9241
vn 0.7509 0.0846 0.6549
vn 0.7087 -0.2011 0.6762
vn 0.7577 -0.5501 0.3510
vn 0.9327 0.2007 -0.2997
vn 0.9151 -0.2838 -0.2865
vn 0.8130 -0.4710 -0.3423
vn -0.4747 0.2410 -0.8465
vn -0.4580 -0.3512 -0.8166
vn -0.6500 -0.4616 -0.6036
vn -0.4639 -0.8285 0.3137
vn -0.1142 -0.9484 0.2957
vn 0.0000 -0.8811 0.4729
vn 0.6050 -0.7458 0.2788
vn 0.3517 -0.9361 -0.0049
vn 0.4277 -0.8903 -0.1561
vn 0.0943 -0.9574 -0.2731
vn -0.1843 -0.9745 -0.1282
vn -0.3673 -0.9151 -0.1662
usemtl Rock
s off
f 1/1/1 12/2/1 3/3/1
f 10/4/2 14/5/2 12/6/2
f 1/1/3 3/3/3 8/7/3
f 2/8/4 11/9/4 17/10/4
f 3/3/5 16/11/5 23/12/5
f 1/1/6 8/7/6 18/13/6
f 2/8/7 17/10/7 20/14/7
f 13/15/8 19/16/8 22/17/8
f 15/18/9 21/19/9 24/20/9
f 4/21/10 25/22/10 9/23/10
f 5/24/11 26/25/11 29/26/11
f 6/27/12 5/28/12 29/29/12
f 7/30/13 27/31/13 30/32/13
f 8/7/14 7/30/14 28/33/14
f 28/33/15 30/34/15 9/35/15
f 28/33/16 7/30/16 30/34/16
f 30/32/17 29/36/17 9/37/17
f 30/32/18 27/31/18 29/36/18
f 27/31/19 6/27/19 29/36/19
f 29/26/20 26/25/20 9/38/20
f 26/25/21 4/21/21 9/38/21
f 9/23/22 25/22/22 28/39/22
f 25/22/23 8/7/23 28/39/23
f 3/3/24 7/30/24 8/7/24
f 3/3/25 23/12/25 7/30/25
f 24/20/26 27/31/26 7/30/26
f 24/20/27 21/19/27 27/31/27
f 21/19/28 6/27/28 27/31/28
f 22/17/29 5/28/29 6/27/29
f 22/17/30 19/16/30 5/28/30
f 20/14/31 26/25/31 5/24/31
f 20/14/32 17/10/32 26/25/32
f 17/10/33 4/21/33 26/25/33
f 18/13/34 25/22/34 4/21/34
f 18/13/35 8/7/35 25/22/35
f 23/12/36 24/20/36 7/30/36
f 23/12/37 16/11/37 24/20/37
f 16/11/38 15/18/38 24/20/38
f 21/19/39 22/17/39 6/27/39
f 21/19/40 15/18/40 22/17/40
f 15/18/41 13/15/41 22/17/41
f 19/16/42 20/40/42 5/28/42
f 19/16/43 13/15/43 20/40/43
f 13/15/44 2/41/44 20/40/44
f 17/10/45 18/13/45 4/21/45
f 17/10/46 11/9/46 18/13/46
f 11/9/47 1/1/47 18/13/47
f 12/6/48 16/11/48 3/3/48
f 12/6/49 14/5/49 16/11/49
f 14/5/50 15/18/50 16/11/50
f 14/42/51 13/15/51 15/18/51
f 14/43/52 10/44/52 13/15/52
f 10/44/53 2/41/53 13/15/53
f 10/45/54 11/9/54 2/8/54
f 10/45/55 12/46/55 11/9/55
f 12/46/56 1/1/56 11/9/56
